<svg width="100" height="101" viewBox="0 0 100 101" fill="none" xmlns="http://www.w3.org/2000/svg">
<g clip-path="url(#clip0)">
<path d="M39.0989 8.09961H23.8053C22.9961 8.09961 22.3405 8.75547 22.3405 9.56445C22.3405 10.3734 22.9961 11.0293 23.8053 11.0293H39.0989C39.908 11.0293 40.5637 10.3734 40.5637 9.56445C40.5637 8.75547 39.908 8.09961 39.0989 8.09961Z" fill="black"/>
<path d="M11.8011 11.0293H16.2584C17.0675 11.0293 17.7232 10.3734 17.7232 9.56445C17.7232 8.75547 17.0675 8.09961 16.2584 8.09961H11.8011C10.992 8.09961 10.3363 8.75547 10.3363 9.56445C10.3363 10.3734 10.9922 11.0293 11.8011 11.0293Z" fill="black"/>
<path d="M11.8011 18.0515H27.0945C27.9037 18.0515 28.5594 17.3957 28.5594 16.5867C28.5594 15.7777 27.9037 15.1218 27.0945 15.1218H11.8011C10.992 15.1218 10.3363 15.7777 10.3363 16.5867C10.3363 17.3957 10.9922 18.0515 11.8011 18.0515Z" fill="black"/>
<path d="M39.0989 15.1218H34.6415C33.8323 15.1218 33.1766 15.7777 33.1766 16.5867C33.1766 17.3957 33.8323 18.0515 34.6415 18.0515H39.0989C39.9081 18.0515 40.5637 17.3957 40.5637 16.5867C40.5637 15.7777 39.9081 15.1218 39.0989 15.1218Z" fill="black"/>
<path d="M90.6768 32.5971C87.3456 32.5971 84.5554 34.9545 83.8811 38.0896H75.8792C75.7987 37.2766 75.6528 36.4633 75.4364 35.6566C74.8723 33.5463 73.8772 31.6268 72.5309 29.9887L82.5915 19.9184C84.4399 21.7352 86.88 22.7361 89.4753 22.7361C92.1042 22.7361 94.5747 21.7107 96.4298 19.8508C98.2893 17.9926 99.3136 15.5203 99.3136 12.8896C99.3136 10.259 98.2893 7.78691 96.4305 5.92949C94.5737 4.0709 92.1038 3.04746 89.4753 3.04746C86.8468 3.04746 84.3768 4.07109 82.52 5.92949C80.6608 7.7877 79.637 10.2596 79.637 12.8896C79.637 14.5473 80.0444 16.1416 80.8102 17.559C80.8007 17.568 80.7905 17.5758 80.7813 17.5852L70.4571 27.9193C69.8235 27.4004 69.1458 26.9266 68.4223 26.509C64.9432 24.5004 60.8917 23.968 57.0147 25.0092C54.8735 25.5822 52.9645 26.5932 51.3565 27.9193L46.7171 23.2756C47.2229 22.5004 47.5184 21.5756 47.5184 20.5824V5.72891C47.5182 3.00508 45.3038 0.789062 42.5817 0.789062H9.337C6.61512 0.789062 4.40048 3.00508 4.40048 5.72891V20.5826C4.40048 23.3064 6.61512 25.5225 9.337 25.5225H20.8817C21.6909 25.5225 22.3466 24.8666 22.3466 24.0576C22.3466 23.2486 21.6909 22.5928 20.8817 22.5928H9.337C8.23036 22.5928 7.33016 21.691 7.33016 20.5826V5.72891C7.33016 4.62051 8.23036 3.71875 9.337 3.71875H42.5817C43.6884 3.71875 44.5886 4.62051 44.5886 5.72891V20.5826C44.5886 21.691 43.6884 22.5928 42.5817 22.5928H27.6481C26.839 22.5928 26.1833 23.2486 26.1833 24.0576C26.1833 24.8666 26.839 25.5225 27.6481 25.5225H42.5817C43.2434 25.5225 43.8745 25.3906 44.4516 25.1533L49.2903 29.9967C46.547 33.3477 45.2747 37.8346 46.1237 42.3375L28.5704 52.4859C28.569 52.4867 28.5681 52.4877 28.5667 52.4883C26.5003 49.9992 23.7261 48.2086 20.5378 47.3541C16.4684 46.2633 12.2181 46.8242 8.57059 48.9332C1.03837 53.2887 -1.55187 62.9627 2.79638 70.4971C4.90067 74.152 8.30145 76.7656 12.3722 77.8574C13.7309 78.2219 15.1095 78.4021 16.4794 78.4021C19.2138 78.4021 21.9132 77.6836 24.3448 76.2777C31.8134 71.9643 34.42 62.4221 30.2272 54.9125L46.9706 45.2324C48.5389 49.1055 51.6167 52.1273 55.5466 53.6211V67.1117V67.8877C55.5466 68.6262 55.5057 69.1674 55.453 69.5582C52.4723 65.242 49.7278 62.0523 44.4532 62.9701C42.7239 63.2756 41.4149 64.273 40.8624 65.707C40.2989 67.1691 40.6223 68.8484 41.7497 70.3217L54.0614 88.398C56.4173 91.8633 56.8147 93.9742 56.8147 97.3955C56.8147 99.2668 58.3388 100.789 60.212 100.789H83.2905C85.1639 100.789 86.688 99.2668 86.688 97.3955V91.4209C86.688 89.2482 87.1413 88.365 87.7688 87.143C88.4374 85.8408 89.2696 84.2203 89.6253 80.9139C89.6307 80.8617 89.6337 80.8096 89.6337 80.7572V75.7412C89.6337 74.9322 88.978 74.2764 88.1688 74.2764C87.3596 74.2764 86.704 74.9322 86.704 75.7412V80.6773C86.403 83.3889 85.7723 84.617 85.1626 85.8047C84.4722 87.1494 83.7583 88.5398 83.7583 91.4207V97.3953C83.7583 97.6469 83.544 97.8592 83.2905 97.8592H60.2118C59.9583 97.8592 59.7442 97.6467 59.7442 97.3953C59.7442 93.516 59.2399 90.8045 56.4835 86.7496L44.147 68.6369C44.1298 68.6119 44.1118 68.5871 44.0932 68.5631C43.587 67.9111 43.4057 67.2541 43.596 66.7604C43.7706 66.3076 44.2686 65.9775 44.9591 65.8555C48.3409 65.2666 50.1518 67.0145 53.1794 71.4217C53.1999 71.4518 53.222 71.4811 53.2446 71.5096C54.3497 72.8854 55.4555 73.391 56.5309 73.0127C57.8764 72.5393 58.4763 70.9586 58.4763 67.8875V67.1115V39.8982C58.4763 37.9357 59.7854 37.2395 60.9065 37.2395C62.0278 37.2395 63.337 37.9357 63.337 39.8982V65.1607C63.337 65.9697 63.9927 66.6256 64.8018 66.6256C65.611 66.6256 66.2667 65.9697 66.2667 65.1607V53.4385C66.2667 51.476 67.5761 50.7797 68.6972 50.7797C68.9673 50.7797 69.2481 50.8213 69.519 50.9102C69.563 50.9289 69.6075 50.9455 69.6526 50.9598C70.4499 51.2734 71.1276 52.0273 71.1276 53.4385V67.1172C71.1276 67.9262 71.7833 68.582 72.5925 68.582C73.4016 68.582 74.0573 67.9262 74.0573 67.1172V56.7584C74.0573 54.7959 75.3665 54.0996 76.4878 54.0996C77.6089 54.0996 78.918 54.7959 78.918 56.7584V69.0736C78.918 69.8826 79.5737 70.5385 80.3829 70.5385C81.1921 70.5385 81.8477 69.8826 81.8477 69.0736V60.0783C81.8477 58.1143 83.1548 57.4174 84.2741 57.4174C84.9098 57.4174 85.5196 57.6482 85.9468 58.0506C86.4487 58.5232 86.7032 59.2055 86.7032 60.0781V68.9736C86.7032 69.7826 87.3589 70.4385 88.168 70.4385C88.9772 70.4385 89.6329 69.7826 89.6329 68.9736V60.0781C89.6329 56.4078 86.937 54.4875 84.2739 54.4875C83.3688 54.4875 82.4604 54.7102 81.655 55.1475C80.9936 52.5297 78.7292 51.1697 76.4874 51.1697C75.5811 51.1697 74.6714 51.3924 73.8649 51.8301C73.5983 50.773 73.0706 49.9211 72.3884 49.2809C74.387 46.9193 75.5891 44.0348 75.8821 41.0193H83.8807C84.5554 44.1514 87.3454 46.5064 90.6762 46.5064C94.5065 46.5064 97.6227 43.3879 97.6227 39.5545C97.6233 35.7182 94.5071 32.5971 90.6768 32.5971ZM84.5917 8.00117C84.5919 8.00098 84.5923 8.00059 84.5925 8.00039C85.8958 6.6959 87.63 5.97734 89.4753 5.97734C91.3206 5.97734 93.0548 6.6959 94.3589 8.00117C95.6647 9.30605 96.3839 11.0422 96.3839 12.8898C96.3839 14.7375 95.6645 16.4738 94.3571 17.7803C93.054 19.0869 91.3202 19.8066 89.4753 19.8066C87.6303 19.8066 85.8966 19.0871 84.5917 17.7787C83.2858 16.4738 82.5667 14.7377 82.5667 12.89C82.5667 11.0424 83.2858 9.30586 84.5917 8.00117ZM22.8792 73.741C22.8788 73.7412 22.8786 73.7412 22.8784 73.7414C19.9065 75.46 16.4446 75.9166 13.1311 75.0277C9.81708 74.1391 7.04852 72.0109 5.33446 69.0342C1.79247 62.8965 3.90204 55.017 10.037 51.4695C12.0157 50.3256 14.2118 49.741 16.4376 49.741C17.552 49.741 18.6741 49.8877 19.7796 50.184C23.0954 51.0727 25.8659 53.2008 27.5809 56.1768C31.1253 62.3184 29.0159 70.1975 22.8792 73.741ZM73.0225 39.5775C73.0202 42.6592 71.8401 45.6531 69.663 47.935C69.3438 47.8787 69.0204 47.85 68.6973 47.85C67.8624 47.85 67.0241 48.0389 66.2669 48.4107V39.8982C66.2669 36.2293 63.5704 34.3098 60.9067 34.3098C58.243 34.3098 55.5468 36.2293 55.5468 39.8982V50.4305C52.4348 48.9031 50.1229 46.1207 49.2018 42.69C47.4747 36.2285 51.3194 29.5666 57.7737 27.8391C60.895 27.0008 64.1569 27.4291 66.9577 29.0465C69.7634 30.6662 71.7694 33.2824 72.6067 36.4146C72.8827 37.4432 73.0194 38.4855 73.0235 39.5187C73.0233 39.5307 73.0218 39.5424 73.0218 39.5545C73.0216 39.5623 73.0225 39.5697 73.0225 39.5775ZM90.6768 43.5768C88.4589 43.5768 86.6544 41.7725 86.6544 39.5545C86.6544 37.3336 88.4587 35.5268 90.6768 35.5268C92.8919 35.5268 94.6936 37.3336 94.6936 39.5545C94.6936 41.7723 92.8919 43.5768 90.6768 43.5768Z" fill="black"/>
<path d="M18.378 55.435C16.4649 54.922 14.4651 55.185 12.7454 56.1776C9.20417 58.2257 7.98796 62.7755 10.0341 66.3198C11.0251 68.0368 12.6247 69.2645 14.538 69.777C15.1764 69.9479 15.8241 70.0327 16.468 70.0327C17.7542 70.0327 19.0243 69.695 20.169 69.0343C20.1692 69.0341 20.1696 69.0339 20.17 69.0337C23.7098 66.9866 24.9262 62.4391 22.8821 58.8981C21.8911 57.1784 20.2917 55.9487 18.378 55.435ZM18.7032 66.4975C17.6635 67.0975 16.4534 67.2575 15.2962 66.9472C14.1387 66.6372 13.1712 65.894 12.5714 64.8552C11.3323 62.7087 12.0684 59.9536 14.2112 58.7143C14.9044 58.3141 15.6727 58.1099 16.4509 58.1099C16.8405 58.1099 17.2327 58.161 17.6186 58.2647C18.7759 58.5753 19.7436 59.3196 20.344 60.3618C21.5817 62.5059 20.8458 65.2585 18.7032 66.4975Z" fill="#ED512A"/>
</g>
<defs>
<clipPath id="clip0">
<rect width="100" height="100" fill="white" transform="translate(0 0.789062)"/>
</clipPath>
</defs>
</svg>
