<svg width="100" height="101" viewBox="0 0 100 101" fill="none" xmlns="http://www.w3.org/2000/svg">
<g clip-path="url(#clip0)">
<path d="M24.1929 33.0527V47.5606H38.7008V33.0527H24.1929ZM35.4921 44.3519H27.4212V36.2811H35.4921V44.3519Z" fill="black"/>
<path d="M41.9291 33.0527V47.5606H56.437V33.0527H41.9291ZM53.2283 44.3519H45.1574V36.2811H53.2283V44.3519Z" fill="#F17C5F"/>
<path d="M59.6851 33.0527V47.5606H74.1929V33.0527H59.6851ZM70.9646 44.3323H62.8937V36.2614H70.9646V44.3323Z" fill="black"/>
<path d="M6.45667 50.7891V65.2969H20.9645V50.7891H6.45667ZM17.7559 62.0883H9.68501V54.0174H17.7559V62.0883Z" fill="black"/>
<path d="M24.1929 50.7891V65.2969H38.7008V50.7891H24.1929ZM35.4921 62.0883H27.4212V54.0174H35.4921V62.0883Z" fill="black"/>
<path d="M41.9291 50.7891V65.2969H56.437V50.7891H41.9291ZM53.2283 62.0883H45.1574V54.0174H53.2283V62.0883Z" fill="black"/>
<path d="M35.4923 16.9111H32.2639V20.1395H35.4923V16.9111Z" fill="black"/>
<path d="M41.929 16.9111H38.7007V20.1395H41.929V16.9111Z" fill="black"/>
<path d="M48.3859 16.9111H45.1576V20.1395H48.3859V16.9111Z" fill="black"/>
<path d="M80.6496 55.8875V8.85993H67.7559V6.43867C67.7559 3.32843 65.2165 0.789062 62.1063 0.789062C58.9961 0.789062 56.4567 3.32843 56.4567 6.43867V8.85993H24.1929V6.43867C24.1929 3.32843 21.6535 0.789062 18.5433 0.789062C15.4331 0.789062 12.8937 3.32843 12.8937 6.43867V8.85993H0V73.3678H55.374C55.0394 74.9229 54.8425 76.5371 54.8425 78.2103C54.8425 90.6709 64.9803 100.789 77.4213 100.789C89.8622 100.789 100 90.6513 100 78.2103C100 66.8521 91.5748 57.4623 80.6496 55.8875ZM59.685 8.85993V6.43867C59.685 5.10009 60.7677 4.01741 62.1063 4.01741C63.4449 4.01741 64.5276 5.10009 64.5276 6.43867V8.85993V16.9308H59.685V8.85993ZM16.122 8.85993V6.43867C16.122 5.10009 17.2047 4.01741 18.5433 4.01741C19.8819 4.01741 20.9646 5.10009 20.9646 6.43867V8.85993V16.9308H16.122V8.85993ZM3.22835 12.0883H12.8937V20.1591H24.1929V12.0883H56.4567V20.1591H67.7559V12.0883H77.4409V25.0017H3.22835V12.0883ZM3.22835 70.1395V28.2103H77.4213V55.6316C67.815 55.6316 59.6063 61.6749 56.3583 70.1395H3.22835ZM77.4213 97.5607C66.752 97.5607 58.0709 88.8796 58.0709 78.2103C58.0709 67.541 66.752 58.8599 77.4213 58.8599C88.0905 58.8599 96.7717 67.541 96.7717 78.2103C96.7717 88.8796 88.0905 97.5607 77.4213 97.5607Z" fill="black"/>
<path d="M79.0354 78.2102V65.2969H75.807V81.4386H87.1062V78.2102H79.0354Z" fill="#ED512A"/>
</g>
<defs>
<clipPath id="clip0">
<rect width="100" height="100" fill="white" transform="translate(0 0.789062)"/>
</clipPath>
</defs>
</svg>
